# xmcd
#
# Track frame offsets: 
#        150
#        25419
#        45762
#        80952
#        117760
#        132775
#        155950
#        183360
#        202940
#        234567
#        265290
#        286550
#        309342
#        323707
#
# Disc length: 4495 seconds
#
# Revision: 3
# Processed by: cddbd v1.5.2PL0 Copyright (c) Steve Scherf et al.
# Submitted via: ExactAudioCopy v1.0b6
#
DISCID=b7118d0e
DTITLE=Gene Ammons - Legends Of Acid Jazz
DYEAR=1970
DGENRE=Jazz
TTITLE0=The Black Cat - 1970
TTITLE1=Long Long Time - 1970
TTITLE2=Piece To Keep Away Evil Spirits - 1970
TTITLE3=Jug Eyes - 1970
TTITLE4=Something - 1970
TTITLE5=Hi Ruth! - 1970
TTITLE6=You Talk That Talk - 1971
TTITLE7=Body And Soul - 1971
TTITLE8=The People's Choice - 1971
TTITLE9=Katea's Dance - 1971
TTITLE10=The Sun Died - 1971
TTITLE11=Out Of It - 1971
TTITLE12=I Can't Stop Loving You - 1962
TTITLE13=My Babe - 1962
EXTD=YEAR: 1970
EXTT0=
EXTT1=
EXTT2=
EXTT3=
EXTT4=
EXTT5=
EXTT6=
EXTT7=
EXTT8=
EXTT9=
EXTT10=
EXTT11=
EXTT12=
EXTT13=
PLAYORDER=
